<?xml version="1.0" encoding="utf-8" ?>
<svg baseProfile="tiny" height="100%" version="1.2" width="100%" xmlns="http://www.w3.org/2000/svg" xmlns:ev="http://www.w3.org/2001/xml-events" xmlns:xlink="http://www.w3.org/1999/xlink"><defs /><rect fill="whitesmoke" height="100" width="150" x="20" y="20" /><line stroke="grey" stroke-dasharray="3 3" stroke-width="1" x1="20" x2="20" y1="20" y2="120" /><text font-size="6px" x="17" y="126">0</text><line stroke="grey" stroke-dasharray="3 3" stroke-width="1" x1="40" x2="40" y1="20" y2="120" /><text font-size="6px" x="37" y="126">20</text><line stroke="grey" stroke-dasharray="3 3" stroke-width="1" x1="60" x2="60" y1="20" y2="120" /><text font-size="6px" x="57" y="126">40</text><line stroke="grey" stroke-dasharray="3 3" stroke-width="1" x1="80" x2="80" y1="20" y2="120" /><text font-size="6px" x="77" y="126">60</text><line stroke="grey" stroke-dasharray="3 3" stroke-width="1" x1="100" x2="100" y1="20" y2="120" /><text font-size="6px" x="97" y="126">80</text><line stroke="grey" stroke-dasharray="3 3" stroke-width="1" x1="120" x2="120" y1="20" y2="120" /><text font-size="6px" x="117" y="126">100</text><line stroke="grey" stroke-dasharray="3 3" stroke-width="1" x1="140" x2="140" y1="20" y2="120" /><text font-size="6px" x="137" y="126">120</text><line stroke="grey" stroke-dasharray="3 3" stroke-width="1" x1="160" x2="160" y1="20" y2="120" /><text font-size="6px" x="157" y="126">140</text><text x="0" y="50">C0</text><line stroke="black" x1="20" x2="170" y1="50" y2="50" /><text x="0" y="100">C1</text><line stroke="black" x1="20" x2="170" y1="100" y2="100" /><rect fill="brown" height="10" width="4" x="20" y="40" /><rect fill="darkblue" height="10" width="6" x="24" y="40" /><rect fill="green" height="10" width="8" x="30" y="40" /><rect fill="brown" height="10" width="4" x="40" y="40" /><rect fill="darkblue" height="10" width="6" x="50" y="40" /><rect fill="brown" height="10" width="4" x="60" y="40" /><rect fill="green" height="10" width="8" x="70" y="40" /><rect fill="brown" height="10" width="4" x="80" y="40" /><rect fill="darkblue" height="10" width="6" x="84" y="40" /><rect fill="brown" height="10" width="4" x="100" y="40" /><rect fill="darkblue" height="10" width="6" x="110" y="40" /><rect fill="brown" height="10" width="4" x="120" y="40" /><rect fill="green" height="10" width="8" x="124" y="40" /><rect fill="brown" height="10" width="4" x="140" y="40" /><rect fill="darkblue" height="10" width="6" x="144" y="40" /><rect fill="brown" height="10" width="4" x="160" y="40" /><rect fill="orange" height="10" width="12" x="20" y="90" /><text font-size="6px" x="20" y="137">T1</text><rect fill="brown" height="10" width="10" x="35" y="130" /><text font-size="6px" x="60" y="137">T2</text><rect fill="darkblue" height="10" width="10" x="75" y="130" /><text font-size="6px" x="100" y="137">T3</text><rect fill="green" height="10" width="10" x="115" y="130" /><text font-size="6px" x="140" y="137">T4</text><rect fill="orange" height="10" width="10" x="155" y="130" /></svg>